<svg width="20" height="21" viewBox="0 0 20 21" fill="none" xmlns="http://www.w3.org/2000/svg">
<path d="M11.17 11.4741H5V9.47412H11.17L8.59 6.88412L10 5.47412L15 10.4741L10 15.4741L8.59 14.0641L11.17 11.4741Z" fill="#2E3A59"/>
<path fill-rule="evenodd" clip-rule="evenodd" d="M0 10.4741C4.82823e-07 4.95127 4.47715 0.474121 10 0.474121C15.5228 0.474122 20 4.95127 20 10.4741C20 15.997 15.5228 20.4741 10 20.4741C4.47715 20.4741 -4.82823e-07 15.997 0 10.4741ZM2 10.4741C2 6.05584 5.58172 2.47412 10 2.47412C14.4183 2.47412 18 6.05584 18 10.4741C18 14.8924 14.4183 18.4741 10 18.4741C5.58172 18.4741 2 14.8924 2 10.4741Z" fill="#2E3A59"/>
</svg>
