<svg width="42" height="42" viewBox="0 0 42 42" fill="none" xmlns="http://www.w3.org/2000/svg">
<path d="M36.2097 4.92358H6.75056C6.0421 4.92358 5.46973 5.49596 5.46973 6.20442V35.6635C5.46973 36.372 6.0421 36.9444 6.75056 36.9444H36.2097C36.9181 36.9444 37.4905 36.372 37.4905 35.6635V6.20442C37.4905 5.49596 36.9181 4.92358 36.2097 4.92358ZM32.5113 14.2696H29.9536C27.9483 14.2696 27.5601 15.2223 27.5601 16.6232V19.7092H32.3472L31.7228 24.5403H27.5601V36.9444H22.5688V24.5443H18.3941V19.7092H22.5688V16.1469C22.5688 12.0122 25.0945 9.75872 28.7849 9.75872C30.554 9.75872 32.071 9.89081 32.5153 9.95085V14.2696H32.5113Z" fill="#007AB6"/>
</svg>
