<svg width="42" height="42" viewBox="0 0 42 42" fill="none" xmlns="http://www.w3.org/2000/svg">
<path d="M36.1989 4.92358H6.73982C6.03136 4.92358 5.45898 5.49596 5.45898 6.20442V35.6635C5.45898 36.372 6.03136 36.9444 6.73982 36.9444H36.1989C36.9074 36.9444 37.4798 36.372 37.4798 35.6635V6.20442C37.4798 5.49596 36.9074 4.92358 36.1989 4.92358ZM14.9571 32.2093H10.2061V16.9274H14.9571V32.2093ZM12.5836 14.838C12.039 14.838 11.5065 14.6765 11.0537 14.3739C10.6008 14.0713 10.2479 13.6412 10.0394 13.1381C9.83101 12.6349 9.77648 12.0812 9.88273 11.547C9.98899 11.0128 10.2513 10.5221 10.6364 10.137C11.0215 9.75188 11.5122 9.48961 12.0464 9.38336C12.5806 9.2771 13.1342 9.33163 13.6374 9.54006C14.1406 9.74849 14.5707 10.1015 14.8733 10.5543C15.1759 11.0072 15.3374 11.5396 15.3374 12.0842C15.3334 13.6052 14.1006 14.838 12.5836 14.838ZM32.7447 32.2093H27.9976V24.7765C27.9976 23.0033 27.9656 20.7258 25.528 20.7258C23.0584 20.7258 22.6782 22.6551 22.6782 24.6484V32.2093H17.9351V16.9274H22.49V19.0167H22.5541C23.1865 17.8159 24.7355 16.5471 27.049 16.5471C31.8601 16.5471 32.7447 19.7132 32.7447 23.8279V32.2093Z" fill="#025279"/>
</svg>
