<svg width="164" height="34" viewBox="0 0 164 34" fill="none" xmlns="http://www.w3.org/2000/svg">
<g clip-path="url(#clip0_42_86)">
<path d="M57.8883 19.5829L56.9108 22.2713H56.8294C56.6664 21.6651 56.3678 20.7426 55.879 19.6357L50.6386 6.85271H45.5068V27.2263H48.9009V14.6543C48.9009 13.8636 48.9009 12.9674 48.8737 11.8605C48.8466 11.307 48.7923 10.8853 48.7651 10.569H48.8466C49.0095 11.3597 49.1995 11.9395 49.3353 12.3085L55.6346 27.1736H58.0241L64.2691 12.1767C64.4048 11.8341 64.5406 11.1488 64.6764 10.569H64.7578C64.6764 12.0713 64.6221 13.4155 64.5949 14.2326V27.1473H68.2062V6.79999H63.2645L57.8883 19.5829V19.5829ZM71.6274 12.5457H75.1572V27.1473H71.6274V12.5457ZM73.4194 6.37829C72.8221 6.37829 72.3333 6.58914 71.926 6.95813C71.5188 7.32713 71.3015 7.80154 71.3015 8.38139C71.3015 8.93488 71.5188 9.4093 71.926 9.77829C72.3333 10.1473 72.8221 10.3318 73.4194 10.3318C74.0168 10.3318 74.5327 10.1209 74.9128 9.77829C75.3201 9.4093 75.5373 8.93488 75.5373 8.38139C75.5373 7.8279 75.3201 7.35348 74.9128 6.95813C74.5598 6.58914 74.0439 6.37829 73.4194 6.37829V6.37829ZM87.6744 12.4139C87.0227 12.2822 86.3439 12.2031 85.6923 12.2031C84.0903 12.2031 82.624 12.5457 81.4022 13.231C80.1803 13.9163 79.2029 14.8651 78.5784 16.0512C77.9267 17.2636 77.6009 18.6605 77.6009 20.2682C77.6009 21.6651 77.9267 22.9039 78.5512 24.0372C79.1757 25.1442 80.0446 26.0403 81.2121 26.6465C82.3254 27.2527 83.6287 27.569 85.0949 27.569C86.7784 27.569 88.2174 27.2263 89.3578 26.5938L89.385 26.5674V23.4046L89.2492 23.5101C88.7333 23.8791 88.136 24.1953 87.5386 24.3798C86.9141 24.5907 86.3439 24.6961 85.8552 24.6961C84.4433 24.6961 83.33 24.3008 82.5426 23.431C81.728 22.5876 81.3207 21.4279 81.3207 19.9783C81.3207 18.476 81.728 17.2899 82.5697 16.4201C83.4115 15.5504 84.5247 15.1023 85.8823 15.1023C87.0227 15.1023 88.1903 15.4713 89.2492 16.2093L89.385 16.3147V12.9674L89.3578 12.9411C88.8962 12.7566 88.3803 12.5457 87.6744 12.4139V12.4139ZM99.3227 12.3085C98.4539 12.3085 97.6393 12.5721 96.9333 13.1256C96.336 13.6 95.9287 14.2853 95.5757 15.1023H95.5486V12.5457H92.0188V27.1473H95.5486V19.6884C95.5486 18.4232 95.8201 17.369 96.4174 16.6046C97.0148 15.8139 97.775 15.4186 98.6982 15.4186C99.0241 15.4186 99.3499 15.4977 99.7572 15.5504C100.137 15.6558 100.409 15.7612 100.599 15.893L100.735 15.9984V12.5721L100.653 12.5457C100.409 12.3876 99.9201 12.3085 99.3227 12.3085V12.3085ZM108.935 12.2295C106.464 12.2295 104.482 12.9411 103.097 14.338C101.685 15.7349 101.006 17.6589 101.006 20.0837C101.006 22.3504 101.712 24.1953 103.07 25.5395C104.427 26.8574 106.274 27.5426 108.582 27.5426C110.998 27.5426 112.926 26.831 114.311 25.4077C115.723 23.9845 116.402 22.0868 116.402 19.7411C116.402 17.4217 115.75 15.5767 114.419 14.2326C113.143 12.8884 111.27 12.2295 108.935 12.2295V12.2295ZM111.758 23.4574C111.107 24.2744 110.075 24.6698 108.799 24.6698C107.523 24.6698 106.491 24.2744 105.758 23.4046C105.025 22.5876 104.672 21.4015 104.672 19.8992C104.672 18.3442 105.052 17.1581 105.758 16.3147C106.491 15.4713 107.496 15.0496 108.772 15.0496C110.021 15.0496 110.998 15.445 111.704 16.262C112.41 17.0791 112.79 18.2651 112.79 19.8201C112.736 21.4015 112.437 22.6403 111.758 23.4574V23.4574ZM124.276 18.6077C123.162 18.1597 122.456 17.817 122.131 17.5271C121.859 17.2636 121.723 16.8946 121.723 16.4201C121.723 16.0248 121.886 15.6294 122.294 15.3659C122.701 15.1023 123.162 14.9705 123.841 14.9705C124.439 14.9705 125.063 15.076 125.66 15.2341C126.258 15.3922 126.801 15.6295 127.235 15.9457L127.371 16.0512V12.8357L127.29 12.8093C126.882 12.6512 126.339 12.493 125.688 12.3612C125.036 12.2558 124.439 12.2031 123.95 12.2031C122.266 12.2031 120.882 12.5984 119.796 13.4682C118.709 14.2853 118.194 15.3922 118.194 16.6837C118.194 17.369 118.302 17.9752 118.547 18.476C118.791 18.9767 119.144 19.4512 119.633 19.8465C120.121 20.2155 120.827 20.6372 121.805 21.0326C122.619 21.3752 123.244 21.6388 123.624 21.8496C124.004 22.0605 124.249 22.2977 124.439 22.4822C124.574 22.693 124.656 22.9566 124.656 23.2992C124.656 24.2744 123.896 24.7488 122.348 24.7488C121.751 24.7488 121.126 24.6434 120.393 24.4062C119.66 24.169 118.981 23.8263 118.411 23.431L118.275 23.3256V26.6729L118.357 26.6992C118.872 26.9364 119.497 27.0946 120.257 27.2791C121.017 27.4108 121.696 27.5163 122.294 27.5163C124.113 27.5163 125.606 27.1209 126.665 26.2512C127.751 25.4077 128.321 24.3271 128.321 22.9302C128.321 21.955 128.05 21.0853 127.453 20.4263C126.665 19.7938 125.688 19.1349 124.276 18.6077V18.6077ZM137.635 12.2295C135.164 12.2295 133.182 12.9411 131.797 14.338C130.412 15.7349 129.706 17.6589 129.706 20.0837C129.706 22.3504 130.412 24.1953 131.77 25.5395C133.127 26.8574 134.974 27.5426 137.282 27.5426C139.698 27.5426 141.626 26.831 143.011 25.4077C144.423 23.9845 145.102 22.0868 145.102 19.7411C145.102 17.4217 144.45 15.5767 143.119 14.2326C141.843 12.8884 139.97 12.2295 137.635 12.2295V12.2295ZM140.431 23.4574C139.78 24.2744 138.748 24.6698 137.472 24.6698C136.168 24.6698 135.164 24.2744 134.431 23.4046C133.698 22.5876 133.345 21.4015 133.345 19.8992C133.345 18.3442 133.725 17.1581 134.431 16.3147C135.164 15.4713 136.168 15.0496 137.445 15.0496C138.666 15.0496 139.671 15.445 140.377 16.262C141.083 17.0791 141.463 18.2651 141.463 19.8201C141.463 21.4015 141.11 22.6403 140.431 23.4574V23.4574ZM163.972 15.3659V12.5457H160.415V8.22325L160.307 8.24961L156.94 9.2248L156.858 9.25116V12.5457H151.537V10.7008C151.537 9.85736 151.754 9.19844 152.134 8.77674C152.514 8.35503 153.084 8.14418 153.79 8.14418C154.279 8.14418 154.795 8.24961 155.365 8.48682L155.501 8.56589V5.58759L155.419 5.56123C154.931 5.40309 154.279 5.29767 153.437 5.29767C152.378 5.29767 151.455 5.53488 150.613 5.93023C149.772 6.37829 149.147 6.98449 148.686 7.80154C148.224 8.59224 147.98 9.48837 147.98 10.5163V12.5457H145.509V15.3395H147.98V27.1473H151.537V15.3659H156.858V22.8775C156.858 25.9612 158.352 27.5163 161.339 27.5163C161.827 27.5163 162.343 27.4372 162.832 27.3581C163.348 27.2527 163.728 27.1209 163.945 27.0155L163.972 26.9891V24.169L163.837 24.2744C163.619 24.4062 163.429 24.5116 163.104 24.5907C162.832 24.6698 162.588 24.6961 162.398 24.6961C161.692 24.6961 161.203 24.538 160.85 24.1426C160.524 23.7736 160.361 23.1674 160.361 22.2713V15.3659H163.972V15.3659Z" fill="#737373"/>
<path d="M0 0H16.6444V16.1566H0V0Z" fill="#F25022"/>
<path d="M18.3818 0H35.0262V16.1566H18.3818V0Z" fill="#7FBA00"/>
<path d="M0 17.8434H16.6444V34H0V17.8434Z" fill="#00A4EF"/>
<path d="M18.3818 17.8434H35.0262V34H18.3818V17.8434Z" fill="#FFB900"/>
</g>
<defs>
<clipPath id="clip0_42_86">
<rect width="164" height="34" fill="white"/>
</clipPath>
</defs>
</svg>
