<svg width="35" height="28" viewBox="0 0 35 28" fill="none" xmlns="http://www.w3.org/2000/svg">
<path d="M34.1445 3.61938C32.9197 4.14772 31.5868 4.52797 30.2139 4.67606C31.6393 3.82926 32.7067 2.49144 33.2159 0.91362C31.8783 1.70929 30.4131 2.26723 28.8851 2.56269C28.2464 1.87995 27.474 1.33605 26.616 0.964883C25.758 0.593713 24.8327 0.403225 23.8978 0.40529C20.1154 0.40529 17.0734 3.47128 17.0734 7.23372C17.0734 7.76206 17.1374 8.29041 17.2415 8.79874C11.5778 8.50254 6.52656 5.79679 3.16838 1.6541C2.55648 2.69924 2.23583 3.88925 2.23978 5.10034C2.23978 7.46987 3.44456 9.55923 5.28175 10.788C4.19906 10.7454 3.14173 10.4478 2.19575 9.91946V10.0035C2.19575 13.3217 4.54127 16.0715 7.6673 16.7039C7.08035 16.8563 6.47655 16.9343 5.87013 16.936C5.42584 16.936 5.00557 16.892 4.5813 16.832C5.44586 19.5377 7.96349 21.503 10.9614 21.567C8.61591 23.4042 5.67801 24.4849 2.48794 24.4849C1.91557 24.4849 1.38722 24.4649 0.838867 24.4009C3.86483 26.3421 7.45516 27.4628 11.3217 27.4628C23.8738 27.4628 30.7423 17.0641 30.7423 8.03824C30.7423 7.74205 30.7423 7.44586 30.7223 7.14967C32.0511 6.17704 33.2159 4.97225 34.1445 3.61938Z" fill="#11B5E4"/>
</svg>
